<svg xmlns="http://www.w3.org/2000/svg" width="108" height="108" fill="none">
  <mask id="a" width="108" height="108" x="0" y="0" maskUnits="userSpaceOnUse" style="mask-type:luminance">
    <rect width="108" height="108" fill="#fff" rx="16"/>
  </mask>
  <g mask="url(#a)">
    <path fill="#3DDC84" d="M-27-27h162v162H-27z"/>
    <path stroke="#fff" stroke-opacity=".2" stroke-width=".8" d="M7.75-1.5v111"/>
    <path stroke="#fff" stroke-opacity=".2" stroke-width=".8" d="M18.028-1.5v111"/>
    <path stroke="#fff" stroke-opacity=".2" stroke-width=".8" d="M28.306-1.5v111"/>
    <path stroke="#fff" stroke-opacity=".2" stroke-width=".8" d="M38.583-1.5v111"/>
    <path stroke="#fff" stroke-opacity=".2" stroke-width=".8" d="M48.861-1.5v111"/>
    <path stroke="#fff" stroke-opacity=".2" stroke-width=".8" d="M59.139-1.5v111"/>
    <path stroke="#fff" stroke-opacity=".2" stroke-width=".8" d="M69.417-1.5v111"/>
    <path stroke="#fff" stroke-opacity=".2" stroke-width=".8" d="M79.694-1.5v111"/>
    <path stroke="#fff" stroke-opacity=".2" stroke-width=".8" d="M89.972-1.5v111"/>
    <path stroke="#fff" stroke-opacity=".2" stroke-width=".8" d="M100.25-1.5v111"/>
    <path stroke="#fff" stroke-opacity=".2" stroke-width=".8" d="M-1.5 7.75h111"/>
    <path stroke="#fff" stroke-opacity=".2" stroke-width=".8" d="M-1.5 18.028h111"/>
    <path stroke="#fff" stroke-opacity=".2" stroke-width=".8" d="M-1.5 28.305h111"/>
    <path stroke="#fff" stroke-opacity=".2" stroke-width=".8" d="M-1.5 38.583h111"/>
    <path stroke="#fff" stroke-opacity=".2" stroke-width=".8" d="M-1.5 48.861h111"/>
    <path stroke="#fff" stroke-opacity=".2" stroke-width=".8" d="M-1.5 59.139h111"/>
    <path stroke="#fff" stroke-opacity=".2" stroke-width=".8" d="M-1.5 69.417h111"/>
    <path stroke="#fff" stroke-opacity=".2" stroke-width=".8" d="M-1.5 79.695h111"/>
    <path stroke="#fff" stroke-opacity=".2" stroke-width=".8" d="M-1.5 89.972h111"/>
    <path stroke="#fff" stroke-opacity=".2" stroke-width=".8" d="M-1.5 100.25h111"/>
    <path stroke="#fff" stroke-opacity=".2" stroke-width=".8" d="M18.028 28.305h71.944"/>
    <path stroke="#fff" stroke-opacity=".2" stroke-width=".8" d="M18.028 38.583h71.944"/>
    <path stroke="#fff" stroke-opacity=".2" stroke-width=".8" d="M18.028 48.861h71.944"/>
    <path stroke="#fff" stroke-opacity=".2" stroke-width=".8" d="M18.028 59.139h71.944"/>
    <path stroke="#fff" stroke-opacity=".2" stroke-width=".8" d="M18.028 69.417h71.944"/>
    <path stroke="#fff" stroke-opacity=".2" stroke-width=".8" d="M18.028 79.695h71.944"/>
    <path stroke="#fff" stroke-opacity=".2" stroke-width=".8" d="M28.306 18.028v71.944"/>
    <path stroke="#fff" stroke-opacity=".2" stroke-width=".8" d="M38.583 18.028v71.944"/>
    <path stroke="#fff" stroke-opacity=".2" stroke-width=".8" d="M48.861 18.028v71.944"/>
    <path stroke="#fff" stroke-opacity=".2" stroke-width=".8" d="M59.139 18.028v71.944"/>
    <path stroke="#fff" stroke-opacity=".2" stroke-width=".8" d="M69.417 18.028v71.944"/>
    <path stroke="#fff" stroke-opacity=".2" stroke-width=".8" d="M79.694 18.028v71.944"/>
    <path fill="#fff" d="M91.519 42.654c.81-1.242 2.253-1.935 3.7-2.08a15.63 15.63 0 0 1 4.564.284v4.351c-.527.061-.991-.244-1.498-.33-.754-.135-1.578-.136-2.282.199-.578.276-.772.945-.862 1.53-.074.485-.09.978-.08 1.469h3.712v4.185h-3.547v15.025H90.34V52.262h-2.068v-4.185h2.067c-.035-1.855.123-3.837 1.18-5.423Z"/>
    <path fill="#fff" d="M80.117 42.511c.882-1.245 2.402-1.868 3.887-1.965a16 16 0 0 1 4.267.31c.002 1.45.001 2.903.001 4.354a1.637 1.637 0 0 1-.76-.116c-.86-.328-1.829-.406-2.715-.14-.393.119-.751.387-.91.776-.323.734-.327 1.559-.337 2.348l3.712-.001v4.185h-3.547v15.025h-4.886V52.263c-.69-.002-1.379 0-2.068 0v-4.185c.69-.002 1.378 0 2.068-.001-.025-1.908.14-3.966 1.288-5.566Z"/>
    <path fill="#fff" d="M68.627 42.496c.89-1.254 2.43-1.863 3.925-1.954 1.406-.07 2.829.016 4.21.314 0 1.451-.002 2.902 0 4.353a1.489 1.489 0 0 1-.706-.104c-.862-.322-1.825-.423-2.718-.165-.4.116-.774.377-.947.765-.332.744-.317 1.575-.356 2.372h3.716v4.185h-3.547v15.025h-4.886V52.262H65.25v-4.185h2.068c-.006-1.914.144-3.981 1.309-5.581Z"/>
    <path fill="#fff" d="M57.104 42.521c.877-1.249 2.4-1.875 3.885-1.974a15.98 15.98 0 0 1 4.285.312v4.351c-.298.03-.585-.04-.858-.15-.819-.297-1.73-.358-2.572-.122-.423.116-.813.396-.975.814-.304.732-.32 1.544-.316 2.325h3.71v4.185h-3.547v15.025H55.83V52.262h-2.067v-4.185l2.066.001c-.034-1.906.136-3.957 1.275-5.557Z"/>
    <path fill="#fff" d="M45.616 42.505c.868-1.217 2.347-1.845 3.806-1.952 1.45-.094 2.917 0 4.34.303v4.354c-.481.06-.907-.203-1.362-.302a4.147 4.147 0 0 0-2.103.042c-.414.124-.786.417-.941.83-.295.724-.306 1.525-.316 2.297l3.713.001v4.184l-3.548.001v15.024H44.32l.001-15.024c-.69-.002-1.378 0-2.068 0v-4.186h2.067c-.02-1.91.142-3.973 1.297-5.572Z"/>
    <path fill="#fff" d="M34.131 42.478c.897-1.244 2.433-1.85 3.924-1.937 1.403-.07 2.822.017 4.197.317v4.353c-.413.051-.786-.154-1.175-.252a4.197 4.197 0 0 0-2.05-.071c-.444.096-.89.325-1.105.744-.383.754-.343 1.622-.397 2.442 1.239.007 2.477.002 3.716.003.002 1.395 0 2.79 0 4.184-1.181.002-2.364.001-3.546.001v15.025h-4.887V52.262h-2.067v-4.185h2.065c.003-1.92.149-3.995 1.325-5.599Z"/>
    <path fill="#fff" d="M14.711 47.724c.38-1.968.773-3.935 1.164-5.901h3.305c-.385 1.967-.775 3.934-1.165 5.9 1.178.003 2.357 0 3.534.001.386-1.965.785-3.927 1.159-5.894 1.107-.018 2.213-.003 3.319-.007-.394 1.965-.776 3.933-1.17 5.9 1.14.004 2.279 0 3.417.001v4.115c-1.414-.002-2.828.002-4.241 0-.337 1.756-.693 3.508-1.03 5.265 1.255.005 2.512.001 3.767.002.002 1.371.001 2.742.001 4.115-1.525-.001-3.05.002-4.575-.001-.413 2.021-.815 4.045-1.228 6.067-1.083-.002-2.167.003-3.252-.002.396-2.022.799-4.042 1.194-6.064l-3.572-.001-1.212 6.067c-1.102.002-2.205-.005-3.307.004.403-2.024.812-4.047 1.223-6.07h-3.64c-.002-1.371 0-2.743-.002-4.115 1.484.002 2.968-.003 4.452.003.352-1.753.686-3.51 1.038-5.263-1.321-.016-2.641-.003-3.963-.007v-4.115h4.784Zm2.474 4.092c-.367 1.785-.718 3.573-1.076 5.361 1.21 0 2.42-.001 3.628.001.357-1.787.703-3.575 1.052-5.362h-3.604Z"/>
  </g>
</svg>