<svg xmlns="http://www.w3.org/2000/svg" width="108" height="108">
	<rect width="108" height="108" fill="#3DDC84" rx="16"/>
	<path fill="#fff" d="M67.808 59.638c-.495 0-.978-.148-1.389-.425a2.517 2.517 0 0 1-.92-1.131 2.543 2.543 0 0 1 .541-2.748 2.478 2.478 0 0 1 2.723-.547c.457.19.847.513 1.122.928a2.538 2.538 0 0 1-.312 3.183 2.49 2.49 0 0 1-1.765.74Zm-27.616 0c-.494 0-.977-.148-1.388-.425a2.517 2.517 0 0 1-.92-1.131 2.542 2.542 0 0 1 .54-2.748 2.478 2.478 0 0 1 2.723-.547c.457.19.848.513 1.122.928a2.538 2.538 0 0 1-.31 3.183 2.49 2.49 0 0 1-1.767.74ZM68.704 44.45l4.993-8.728a1.056 1.056 0 0 0-.38-1.433 1.035 1.035 0 0 0-1.42.383l-5.056 8.838c-3.866-1.78-8.208-2.772-12.841-2.772-4.634 0-8.976.993-12.842 2.772l-5.056-8.837a1.044 1.044 0 0 0-.63-.49 1.028 1.028 0 0 0-1.093.375 1.053 1.053 0 0 0-.076 1.163l4.993 8.729C30.722 49.156 24.858 57.916 24 68.266h60c-.859-10.35-6.723-19.11-15.296-23.816Z"/>
</svg>